<svg width="19" height="19" viewBox="0 0 19 19" fill="none" xmlns="http://www.w3.org/2000/svg">
<circle cx="9.5" cy="9.5" r="9.5" fill="#1786FF"/>
<path fill-rule="evenodd" clip-rule="evenodd" d="M6.88057 6.80002H5.63633C5.39763 6.80002 5.16871 6.89367 4.99993 7.06037C4.83115 7.22707 4.73633 7.45316 4.73633 7.68891V12.5283C4.73633 12.7641 4.83115 12.9902 4.99993 13.1569C5.16871 13.3236 5.39763 13.4172 5.63633 13.4172H13.4999C13.7386 13.4172 13.9675 13.3236 14.1363 13.1569C14.3051 12.9902 14.3999 12.7641 14.3999 12.5283V7.68891C14.3999 7.45316 14.3051 7.22707 14.1363 7.06037C13.9675 6.89367 13.7386 6.80002 13.4999 6.80002H12.1193C11.7428 6.80002 11.4019 6.57778 11.2499 6.23335C11.098 5.88893 10.757 5.66669 10.3806 5.66669H8.61929C8.24284 5.66669 7.90188 5.88893 7.74993 6.23335C7.59798 6.57778 7.25702 6.80002 6.88057 6.80002ZM9.51659 8.02225C8.98616 8.02225 8.47745 8.23296 8.10238 8.60803C7.72731 8.98311 7.51659 9.49181 7.51659 10.0222C7.51659 10.5527 7.72731 11.0614 8.10238 11.4365C8.47745 11.8115 8.98616 12.0222 9.51659 12.0222C10.047 12.0222 10.5557 11.8115 10.9308 11.4365C11.3059 11.0614 11.5166 10.5527 11.5166 10.0222C11.5166 9.49181 11.3059 8.98311 10.9308 8.60803C10.5557 8.23296 10.047 8.02225 9.51659 8.02225Z" fill="white"/>
<path d="M8.63272 9.14279C8.86714 8.90837 9.18508 8.77667 9.5166 8.77667C9.84812 8.77667 10.1661 8.90837 10.4005 9.14279C10.6349 9.37721 10.7666 9.69515 10.7666 10.0267C10.7666 10.3582 10.6349 10.6761 10.4005 10.9106C10.1661 11.145 9.84812 11.2767 9.5166 11.2767C9.18508 11.2767 8.86714 11.145 8.63272 10.9106C8.3983 10.6761 8.2666 10.3582 8.2666 10.0267C8.2666 9.69515 8.3983 9.37721 8.63272 9.14279Z" fill="white"/>
</svg>
