<svg width="20" height="20" viewBox="0 0 20 20" fill="none" xmlns="http://www.w3.org/2000/svg">
<circle cx="10" cy="10" r="9" fill="#1786FF"/>
<path d="M6.00049 5.99976H7.50049L8.50049 4.99976H11.5005L12.5005 5.99976H14.0005C14.2657 5.99976 14.5201 6.10511 14.7076 6.29265C14.8951 6.48019 15.0005 6.73454 15.0005 6.99976V12.9998C15.0005 13.265 14.8951 13.5193 14.7076 13.7069C14.5201 13.8944 14.2657 13.9998 14.0005 13.9998H6.00049C5.73527 13.9998 5.48092 13.8944 5.29338 13.7069C5.10585 13.5193 5.00049 13.265 5.00049 12.9998V6.99976C5.00049 6.73454 5.10585 6.48019 5.29338 6.29265C5.48092 6.10511 5.73527 5.99976 6.00049 5.99976ZM10.0005 7.49976C9.33745 7.49976 8.70156 7.76315 8.23272 8.23199C7.76388 8.70083 7.50049 9.33671 7.50049 9.99976C7.50049 10.6628 7.76388 11.2987 8.23272 11.7675C8.70156 12.2364 9.33745 12.4998 10.0005 12.4998C10.6635 12.4998 11.2994 12.2364 11.7683 11.7675C12.2371 11.2987 12.5005 10.6628 12.5005 9.99976C12.5005 9.33671 12.2371 8.70083 11.7683 8.23199C11.2994 7.76315 10.6635 7.49976 10.0005 7.49976ZM10.0005 8.49976C10.3983 8.49976 10.7798 8.65779 11.0611 8.9391C11.3425 9.2204 11.5005 9.60193 11.5005 9.99976C11.5005 10.3976 11.3425 10.7791 11.0611 11.0604C10.7798 11.3417 10.3983 11.4998 10.0005 11.4998C9.60266 11.4998 9.22113 11.3417 8.93983 11.0604C8.65852 10.7791 8.50049 10.3976 8.50049 9.99976C8.50049 9.60193 8.65852 9.2204 8.93983 8.9391C9.22113 8.65779 9.60266 8.49976 10.0005 8.49976Z" fill="white"/>
</svg>
