<svg width="24" height="24" viewBox="0 0 24 24" fill="none" xmlns="http://www.w3.org/2000/svg">
<path fill-rule="evenodd" clip-rule="evenodd" d="M5.65062 21.7699L5.54834 18.7188C5.54535 18.6298 5.49293 18.5506 5.41321 18.51C3.86225 17.7212 1 15.271 1 11.203C1 5.97212 5.54348 3 10.8043 3C15.9477 3 20.5196 6.40897 20.7213 11.3383C20.7281 11.5032 20.5629 11.6206 20.4037 11.574C19.8468 11.4107 18.9073 11.203 17.9783 11.203C16.5435 11.203 11.8804 11.6786 11.8804 16.434C11.8804 17.8258 12.2676 18.7982 12.6371 19.367C12.7598 19.5558 12.6204 19.8816 12.3944 19.8816H10.263C10.2258 19.8816 10.1892 19.8902 10.156 19.9067L5.99656 21.9746C5.84066 22.0521 5.65643 21.9431 5.65062 21.7699ZM23 16.6717C23 18.2773 21.9873 19.6764 20.4891 20.4087V21.6058C20.4891 21.7897 20.2882 21.904 20.1288 21.8108L18.6189 20.9277C18.4477 20.9435 18.2738 20.9516 18.0978 20.9516C15.3904 20.9516 13.1957 19.0354 13.1957 16.6717C13.1957 14.308 15.3904 12.3919 18.0978 12.3919C20.8052 12.3919 23 14.308 23 16.6717Z" fill="url(#paint0_linear_1_910)"/>
<circle cx="21.5" cy="2.5" r="1.5" fill="#D9D9D9"/>
<circle cx="21.5" cy="2.5" r="1.5" fill="url(#paint1_linear_1_910)"/>
<defs>
<linearGradient id="paint0_linear_1_910" x1="20.6186" y1="6.94805" x2="5.98839" y2="22.6885" gradientUnits="userSpaceOnUse">
<stop stop-color="#EE805F"/>
<stop offset="1" stop-color="#EA4080"/>
</linearGradient>
<linearGradient id="paint1_linear_1_910" x1="22.6753" y1="1.62338" x2="20.3653" y2="3.76975" gradientUnits="userSpaceOnUse">
<stop stop-color="#EE805F"/>
<stop offset="1" stop-color="#EA4080"/>
</linearGradient>
</defs>
</svg>
