<svg width="30" height="30" viewBox="0 0 30 30" fill="none" xmlns="http://www.w3.org/2000/svg">
<path d="M30 15C30 23.2843 23.2843 30 15 30C6.71573 30 0 23.2843 0 15C0 6.71573 6.71573 0 15 0C23.2843 0 30 6.71573 30 15Z" fill="#EBEEF1"/>
<path d="M7.23755 15.9433C7.23755 13.2339 9.43397 11.0375 12.1434 11.0375H20.0943C22.8037 11.0375 25.0001 13.2339 25.0001 15.9433V15.9433C25.0001 18.6527 22.8037 20.8492 20.0942 20.8492H12.1434C9.43397 20.8492 7.23755 18.6527 7.23755 15.9433V15.9433Z" fill="#37AAFF"/>
<rect x="15.6958" y="13.575" width="5.92085" height="1.69167" rx="0.845835" fill="#EBEFF2"/>
<rect x="15.6958" y="16.1125" width="3.04501" height="1.69167" rx="0.845835" fill="#EBEFF2"/>
<circle cx="12.1429" cy="15.0976" r="1.015" fill="#EBEFF2"/>
<path d="M13.8348 18.3118C13.8348 17.8631 13.6565 17.4328 13.3393 17.1156C13.022 16.7983 12.5917 16.6201 12.1431 16.6201C11.6944 16.6201 11.2641 16.7983 10.9469 17.1156C10.6296 17.4328 10.4514 17.8631 10.4514 18.3118L12.1431 18.3118H13.8348Z" fill="#EBEFF2"/>
<path fill-rule="evenodd" clip-rule="evenodd" d="M9.18288 8.5C6.70703 8.5 4.69995 10.5071 4.69995 12.9829C4.69995 14.2923 5.26131 15.4706 6.15648 16.2902C6.08878 15.9596 6.05323 15.6173 6.05323 15.2667C6.05323 12.4638 8.32539 10.1917 11.1282 10.1917H21.6569C20.8355 9.16075 19.5693 8.5 18.1487 8.5H9.18288Z" fill="#37AAFF"/>
</svg>
