<svg width="30" height="30" viewBox="0 0 30 30" fill="none" xmlns="http://www.w3.org/2000/svg">
<path d="M30 15C30 23.2843 23.2843 30 15 30C6.71573 30 0 23.2843 0 15C0 6.71573 6.71573 0 15 0C23.2843 0 30 6.71573 30 15Z" fill="#EBEEF1"/>
<path fill-rule="evenodd" clip-rule="evenodd" d="M13.5 17.1644C12.6828 18.0307 11.5416 18.6002 10.0875 18.6002C7.74437 18.6002 5.82144 17.0501 5.82144 14.6569C5.82144 12.2522 7.74437 10.7252 10.0875 10.7252C11.7583 10.7252 12.8033 11.5232 13.4038 12.4231L11.9862 13.153C11.782 12.8507 11.5013 12.6017 11.1697 12.4286C10.838 12.2555 10.466 12.1638 10.0875 12.1619C8.63344 12.1619 7.57628 13.2212 7.57628 14.6569C7.57628 16.0927 8.63344 17.1539 10.0875 17.1539C10.7964 17.1539 11.4697 16.8561 11.7938 16.5719V15.6595H9.67946V14.2478H13.5V17.1644ZM16.2063 10.8072V18.6003H14.5001V10.8072H16.2063ZM19.4993 15.2633V18.6003H17.793V10.8072H23.4636V12.2314H19.4993V13.8381H23.1548V15.2633H19.4993Z" fill="#4A4A4A"/>
</svg>
