<svg width="20" height="20" viewBox="0 0 20 20" fill="none" xmlns="http://www.w3.org/2000/svg">
<g clip-path="url(#clip0_1_5868)">
<path d="M17.0813 5.53219C16.7172 5.41646 16.3377 5.35623 15.9556 5.35351H15.8901C15.4847 5.38316 15.0845 5.46319 14.6989 5.59175C14.5779 5.41968 14.4424 5.25828 14.2939 5.10932C13.8541 4.66853 13.3054 4.35206 12.7037 4.1921C11.9928 3.96536 11.2333 3.93879 10.5084 4.1153C9.78342 4.2918 9.1211 4.66457 8.59407 5.1927H3.08481C2.51485 5.18503 1.96409 5.3985 1.54818 5.7883C1.2032 6.12576 1.00614 6.58627 1.00023 7.06882C0.995891 7.35128 1.05212 7.63139 1.16513 7.89029C1.27814 8.14918 1.44531 8.38086 1.65539 8.56972C1.91059 8.79303 2.21778 8.94867 2.54878 9.02237C2.3052 9.32182 2.16334 9.69107 2.14378 10.0766C2.12554 10.4734 2.22948 10.8663 2.44157 11.2023C2.61408 11.4951 2.85939 11.7384 3.15368 11.9086C3.44797 12.0787 3.78125 12.1698 4.12115 12.1731H4.31174C4.09664 12.4738 3.98011 12.8338 3.97821 13.2034C3.98439 13.4592 4.04091 13.7113 4.14454 13.9452C4.24817 14.1792 4.39688 14.3904 4.58217 14.5668C4.76746 14.7433 4.9857 14.8815 5.22442 14.9735C5.46314 15.0656 5.71767 15.1097 5.97345 15.1034H10.2915L10.5536 15.5501C10.7479 15.859 11.0454 16.089 11.3934 16.1993C11.5379 16.2444 11.6886 16.2665 11.8401 16.2648C12.0645 16.2673 12.2866 16.2184 12.4893 16.1219L17.2064 13.9003L17.8377 13.5727C18.7638 13.0028 19.4484 12.1126 19.7615 11.0712C20.5357 8.62333 19.3684 6.24095 17.0813 5.53219ZM18.6954 10.7317C18.4638 11.4995 17.9597 12.1561 17.2778 12.5781L12.0187 15.0677C11.938 15.0973 11.8493 15.0973 11.7686 15.0677C11.6846 15.0389 11.6132 14.9821 11.5661 14.9068L8.61789 9.90385C8.29073 9.17004 8.24203 8.34219 8.4809 7.57508C8.5541 7.37062 8.64167 7.17159 8.74296 6.97948C8.86761 6.72427 9.02151 6.48442 9.20157 6.26477C9.47414 5.92913 9.81829 5.65867 10.2089 5.47318C10.5994 5.28769 11.0265 5.19186 11.4589 5.1927C11.768 5.19495 12.0751 5.24312 12.3701 5.33564C12.7691 5.43913 13.1344 5.64434 13.4303 5.93124C13.6249 6.13712 13.7948 6.36499 13.9365 6.61022L14.2046 7.045L14.6989 6.83654C15.1021 6.65781 15.5335 6.55098 15.9735 6.52088C16.2365 6.52748 16.4972 6.5716 16.7478 6.65191C18.4154 7.17008 19.2314 8.88539 18.6656 10.7317H18.6954ZM2.42966 7.70015C2.34754 7.61777 2.28383 7.5189 2.24277 7.41007C2.2017 7.30123 2.1842 7.18492 2.19142 7.06882C2.19309 6.98277 2.21186 6.89792 2.24662 6.81918C2.28138 6.74045 2.33146 6.66942 2.39393 6.61022C2.48645 6.52149 2.59573 6.45209 2.71537 6.40607C2.83502 6.36006 2.96264 6.33834 3.09077 6.3422H7.76023C7.43478 6.80681 7.07904 7.31902 6.95624 7.87282L3.07886 7.88479C2.84734 7.90287 2.61701 7.83736 2.42966 7.70015ZM4.21644 11.0117C4.0602 11.0227 3.90396 10.9901 3.76515 10.9175C3.62633 10.845 3.5104 10.7353 3.43026 10.6007C3.34224 10.4644 3.29856 10.3042 3.30518 10.1421C3.30951 10.0388 3.3382 9.93804 3.38892 9.84799C3.43965 9.75793 3.51096 9.68115 3.59703 9.62392C3.78761 9.49825 4.01205 9.43382 4.24027 9.43929H6.98L7.08721 9.67753C7.14677 9.80856 7.23015 9.98724 7.31949 10.1659L7.74237 11.0057L4.21644 11.0117ZM6.00323 13.9301C5.79656 13.9432 5.59306 13.8742 5.43693 13.7382C5.28081 13.6021 5.18467 13.41 5.1694 13.2034C5.18319 12.997 5.27785 12.8042 5.43284 12.6671C5.58782 12.5299 5.79064 12.4594 5.99727 12.4709H8.62385L9.49937 13.9301H6.00323Z" fill="white"/>
<path d="M7.73651 6.38393C7.41106 6.84853 7.18034 7.37271 7.05754 7.92652H3.07896C2.8422 7.93279 2.61131 7.8523 2.42977 7.70019C2.34764 7.61781 2.28394 7.51893 2.24287 7.4101C2.2018 7.30127 2.1843 7.18496 2.19153 7.06886C2.1932 6.98281 2.21196 6.89795 2.24673 6.81922C2.28149 6.74049 2.33156 6.66945 2.39403 6.61025C2.48656 6.52153 2.59583 6.45213 2.71548 6.40611C2.83513 6.36009 2.96274 6.33838 3.09088 6.34223H7.76034L7.73651 6.38393Z" fill="#F3C854"/>
<path d="M9.49941 13.9301H5.99731C5.79163 13.9416 5.58966 13.8719 5.43484 13.736C5.28002 13.6002 5.18472 13.4089 5.16943 13.2035C5.18323 12.997 5.27789 12.8043 5.43287 12.6671C5.58786 12.53 5.79067 12.4595 5.99731 12.4709H8.62388L9.49941 13.9301Z" fill="#F3C854"/>
<path d="M7.32551 10.1662C7.23617 9.98748 7.15279 9.8088 7.09323 9.67777L6.98602 9.43953H4.24629C4.01806 9.43406 3.79362 9.49849 3.60304 9.62416C3.51697 9.68139 3.44567 9.75817 3.39494 9.84823C3.34422 9.93828 3.31553 10.0391 3.3112 10.1423C3.30457 10.3044 3.34826 10.4646 3.43628 10.6009C3.51641 10.7355 3.63235 10.8452 3.77116 10.9178C3.90998 10.9903 4.06622 11.0229 4.22246 11.0119H7.74243L7.32551 10.1662Z" fill="#F3C854"/>
<path d="M17.499 13.1053L17.528 13.0915L17.5553 13.0746C18.3579 12.5779 18.9513 11.8051 19.2242 10.9016C19.8684 8.79766 18.9426 6.72374 16.9234 6.09489C16.6207 5.99812 16.3057 5.94495 15.988 5.93698L15.9607 5.93629L15.9335 5.93816C15.4274 5.97278 14.9312 6.09534 14.4671 6.30034L14.4389 6.31226L14.4377 6.31044C14.2741 6.02872 14.0784 5.76685 13.8546 5.53005L13.8459 5.52076L13.8367 5.51187C13.4718 5.15808 13.0221 4.90405 12.531 4.77402C12.185 4.667 11.8252 4.61127 11.463 4.60863V4.60862L11.4599 4.60862C10.9405 4.6076 10.4274 4.72273 9.95817 4.94557C9.48938 5.16821 9.07624 5.49276 8.74893 5.8955C8.54245 6.14754 8.36566 6.42251 8.22206 6.71496C8.10968 6.92897 8.0124 7.15058 7.93093 7.37817L7.9268 7.38969L7.92316 7.40138C7.64209 8.30402 7.69939 9.27813 8.08435 10.1416L8.09782 10.1718L8.11461 10.2003L11.0628 15.2033L11.0667 15.21L11.0709 15.2166C11.1879 15.4036 11.3651 15.5452 11.5732 15.618C11.7822 15.6931 12.011 15.6924 12.2197 15.6159L12.2451 15.6066L12.2696 15.5949L17.499 13.1053Z" fill="url(#paint0_linear_1_5868)" stroke="white" stroke-width="1.16803" stroke-linecap="round"/>
</g>
<defs>
<linearGradient id="paint0_linear_1_5868" x1="9.90964" y1="13.8017" x2="19.125" y2="12.4765" gradientUnits="userSpaceOnUse">
<stop stop-color="#F6D36E"/>
<stop offset="1" stop-color="#E8B422"/>
</linearGradient>
<clipPath id="clip0_1_5868">
<rect width="20" height="20" fill="white"/>
</clipPath>
</defs>
</svg>
