<svg width="20" height="20" viewBox="0 0 20 20" fill="none" xmlns="http://www.w3.org/2000/svg">
<g clip-path="url(#clip0_1_5868)">
<path d="M2.6201 6.5155H7.3976C7.07592 6.98867 6.84828 7.51932 6.7271 8.0785H2.6201C2.3156 8.1085 2.0201 7.966 1.85885 7.711C1.77962 7.58607 1.73755 7.44118 1.73755 7.29325C1.73755 7.14531 1.77962 7.00043 1.85885 6.8755C2.0201 6.61975 2.31635 6.4765 2.6201 6.50725V6.5155ZM3.8801 11.2127C3.5756 11.2427 3.2801 11.1002 3.11885 10.8452C3.03962 10.7203 2.99755 10.5754 2.99755 10.4275C2.99755 10.2796 3.03962 10.1347 3.11885 10.0097C3.2801 9.75475 3.57635 9.6115 3.8801 9.64225H6.7271C6.78485 9.9235 6.8666 10.2055 6.9896 10.4717L7.00535 10.504L7.02185 10.5362L7.43135 11.2127H3.8801ZM5.7371 14.3477C5.2946 14.3477 4.93535 13.9937 4.93535 13.558C4.93535 13.1215 5.2946 12.7682 5.73785 12.7682H8.35535L9.30485 14.3477H5.7371ZM16.0466 12.97L11.2766 15.1375C11.1963 15.1723 11.1063 15.1776 11.0224 15.1525C10.9386 15.1274 10.8663 15.0735 10.8183 15.0002L7.8401 10.1252C7.50915 9.41495 7.45957 8.60564 7.70135 7.86025C8.1671 6.38725 9.34535 5.5 10.7118 5.5C11.0148 5.5 11.3253 5.548 11.6366 5.63725C12.5531 5.911 12.9453 6.3865 13.4936 7.3615C14.0288 7.04295 14.6317 6.85535 15.2531 6.814C15.4983 6.814 15.7518 6.862 16.0383 6.94225C17.7558 7.45 18.5749 9.118 18.0019 10.915C17.7622 11.6699 17.2524 12.3098 16.5701 12.712L16.4553 12.7765L16.3413 12.8327L16.0466 12.97Z" fill="#F2C956" stroke="white" stroke-linecap="round"/>
</g>
<defs>
<clipPath id="clip0_1_5868">
<rect width="18" height="18" fill="white" transform="translate(1 1)"/>
</clipPath>
</defs>
</svg>
