<svg width="20" height="20" viewBox="0 0 20 20" fill="none" xmlns="http://www.w3.org/2000/svg">
<g clip-path="url(#clip0_1_5840)">
<path fill-rule="evenodd" clip-rule="evenodd" d="M15.0194 8.6084C16.0702 8.6084 16.9221 9.48495 16.9221 10.5656C16.9221 11.6462 16.0702 12.5222 15.0194 12.5222C13.9691 12.5222 13.1172 11.6462 13.1172 10.5656C13.1172 9.48495 13.9691 8.6084 15.0194 8.6084ZM10.0731 8.6084C11.1239 8.6084 11.9758 9.48495 11.9758 10.5656C11.9758 11.6462 11.1239 12.5222 10.0731 12.5222C9.02284 12.5222 8.17094 11.6462 8.17094 10.5656C8.17094 9.48495 9.02284 8.6084 10.0731 8.6084ZM5.12681 8.6084C6.17764 8.6084 7.02954 9.48495 7.02954 10.5656C7.02954 11.6462 6.17764 12.5222 5.12681 12.5222C4.07598 12.5222 3.22465 11.6462 3.22465 10.5656C3.22465 9.48495 4.07598 8.6084 5.12681 8.6084Z" fill="#7D848F"/>
</g>
<defs>
<clipPath id="clip0_1_5840">
<rect width="10.8" height="18" fill="white" transform="matrix(0 1 -1 0 19 5)"/>
</clipPath>
</defs>
</svg>
