<svg width="20" height="20" viewBox="0 0 20 20" fill="none" xmlns="http://www.w3.org/2000/svg">
<g clip-path="url(#clip0_1_5796)">
<path fill-rule="evenodd" clip-rule="evenodd" d="M15.5833 7.05054C16.7807 7.05054 17.7515 8.04938 17.7515 9.2808C17.7515 10.5122 16.7807 11.5104 15.5833 11.5104C14.3865 11.5104 13.4157 10.5122 13.4157 9.2808C13.4157 8.04938 14.3865 7.05054 15.5833 7.05054ZM9.94687 7.05054C11.1443 7.05054 12.1151 8.04938 12.1151 9.2808C12.1151 10.5122 11.1443 11.5104 9.94687 11.5104C8.75008 11.5104 7.77932 10.5122 7.77932 9.2808C7.77932 8.04938 8.75008 7.05054 9.94687 7.05054ZM4.31047 7.05054C5.50791 7.05054 6.47866 8.04938 6.47866 9.2808C6.47866 10.5122 5.50791 11.5104 4.31047 11.5104C3.11303 11.5104 2.14292 10.5122 2.14292 9.2808C2.14292 8.04938 3.11303 7.05054 4.31047 7.05054Z" fill="#7D848F"/>
</g>
<defs>
<clipPath id="clip0_1_5796">
<rect width="20" height="20" fill="white" transform="matrix(0 1 -1 0 20 0)"/>
</clipPath>
</defs>
</svg>
