<svg width="30" height="30" viewBox="0 0 30 30" fill="none" xmlns="http://www.w3.org/2000/svg">
<path d="M30 15C30 23.2843 23.2843 30 15 30C6.71573 30 0 23.2843 0 15C0 6.71573 6.71573 0 15 0C23.2843 0 30 6.71573 30 15Z" fill="#EBEEF1"/>
<path d="M21.2842 19.0223C21.2849 19.3265 21.2025 19.6251 21.046 19.886C20.7799 20.3302 20.3863 20.6841 19.9164 20.9017C19.4326 21.1425 18.8947 21.254 18.355 21.2252C17.6718 21.1905 17.0622 20.9649 16.5623 20.4824C16.2701 20.2011 16.0679 19.8013 16 19.4015C15.9321 19.0016 15.895 18.3685 16.078 18.0065C16.3391 17.4706 16.7598 17.0963 17.2854 16.8318C17.7453 16.6023 17.9862 16.5871 18.5 16.6015C18.8482 16.6112 19.5 16.8318 19.5 16.8318C19.5 14.9683 19.4958 13.1091 19.4958 11.2456C19.4958 11.1394 19.4903 11.1373 19.3868 11.1512L17.4107 11.4747C16.6878 11.5761 15.9646 11.6777 15.2411 11.7795C14.5177 11.8813 14.0006 11.8733 13.2776 11.9728C13.1568 11.9902 13.036 12.0089 12.9152 12.0256C12.8729 12.0316 12.8341 12.0527 12.8061 12.085C12.778 12.1172 12.7625 12.1585 12.7624 12.2013C12.7624 14.5123 12.7666 16.8194 12.7666 19.1309C12.7707 19.5687 12.6798 20.1022 12.5 20.5015C12.3615 20.7924 11.9486 21.1576 11.6912 21.3515C11.0275 21.877 10.0617 22.007 9.19875 21.8563C8.52598 21.739 7.91571 21.3884 7.56023 20.7608C7.45861 20.5826 7.38507 20.3899 7.34223 20.1894C7.28776 19.9352 7.28603 19.6726 7.33714 19.4177C7.38825 19.1629 7.48001 18.8338 7.62827 18.6203C8.00527 18.0433 8.54612 17.6844 9.19875 17.4907C9.80564 17.3052 10.4661 17.3992 11.0692 17.5969C11.0935 17.6045 11.1184 17.6094 11.1525 17.617C11.1525 17.5691 11.158 17.5303 11.158 17.4907C11.158 16.8288 11.158 16.1671 11.158 15.5057C11.1622 13.6048 11.1668 11.8024 11.1719 9.90146C11.1719 9.7626 11.167 9.62375 11.1719 9.48489C11.1719 9.29188 11.2788 9.18218 11.4711 9.15788L13.8588 8.84962C14.6919 8.7427 15.5251 8.63647 16.3582 8.53094C17.0567 8.44115 17.7551 8.35089 18.4536 8.26017C19.0895 8.17894 19.7269 8.09563 20.3615 8.01717C20.4781 7.99894 20.5966 7.99521 20.7142 8.00606C20.8101 8.02135 20.9019 8.05601 20.9841 8.10794C21.0662 8.15986 21.1369 8.22795 21.1918 8.30808C21.2532 8.38899 21.285 8.48845 21.2821 8.58996C21.2802 12.1003 21.2809 15.512 21.2842 19.0223Z" fill="#30D667"/>
</svg>
