<svg width="24" height="24" viewBox="0 0 24 24" fill="none" xmlns="http://www.w3.org/2000/svg">
<path fill-rule="evenodd" clip-rule="evenodd" d="M12.2235 23C12.2264 23 12.2293 23 12.2323 23C12.234 23 12.2357 23 12.2374 23C15.9236 22.9982 20.4469 22.5675 20.4469 19.3097C20.4469 16.8838 17.7527 14.5968 16.1182 13.5633C15.9492 13.4564 15.9318 13.2124 16.0769 13.0747C17.4485 11.7729 18.047 9.51613 18.047 6.72101C17.9239 3.54008 15.3676 1 12.2323 1C9.11142 1 6.56437 3.51657 6.41941 6.67678C6.41941 9.51613 7.20217 11.9662 8.37004 13.0747C8.51511 13.2124 8.49775 13.4564 8.32871 13.5633C6.69416 14.5968 4 16.8838 4 19.3097C4 22.5675 8.52328 22.9982 12.2095 23C12.2112 23 12.2129 23 12.2147 23C12.2176 23 12.2205 23 12.2235 23Z" fill="#7D848F"/>
</svg>
