<svg width="20" height="20" viewBox="0 0 20 20" fill="none" xmlns="http://www.w3.org/2000/svg">
<path fill-rule="evenodd" clip-rule="evenodd" d="M14.3983 5.50624C15.6717 6.77972 16.2084 8.43044 16.2084 9.25944L17.1593 9.25944C17.4016 9.25944 17.5439 9.53173 17.4057 9.73065L15.5334 12.4246C15.4122 12.599 15.1532 12.5957 15.0365 12.4184L13.2629 9.72442C13.1316 9.52495 13.2747 9.25946 13.5135 9.25946H14.3983C14.3983 8.78788 14.144 7.57857 13.2239 6.65855C11.8093 5.24388 8.63644 4.81557 6.79642 6.6556C6.6244 6.82762 6.34274 6.84252 6.17072 6.6705L5.52797 6.02776C5.34745 5.84723 5.33608 5.55632 5.51645 5.37564C7.92686 2.96107 12.0894 3.19735 14.3983 5.50624Z" fill="#4A4A4A"/>
<path fill-rule="evenodd" clip-rule="evenodd" d="M5.59394 14.4938C4.32049 13.2203 3.78377 11.5696 3.78377 10.7406L2.83285 10.7406C2.5906 10.7406 2.44825 10.4683 2.5865 10.2694L4.45879 7.57539C4.57997 7.40103 4.83896 7.40429 4.95571 7.58164L6.72926 10.2756C6.86058 10.4751 6.71751 10.7405 6.47868 10.7405H5.59394C5.59394 11.2121 5.84823 12.4214 6.76826 13.3415C8.18292 14.7561 11.3557 15.1844 13.1958 13.3444C13.3678 13.1724 13.6495 13.1575 13.8215 13.3295L14.4642 13.9722C14.6447 14.1528 14.6561 14.4437 14.4757 14.6244C12.0653 17.0389 7.90275 16.8027 5.59394 14.4938Z" fill="#4A4A4A"/>
</svg>
