<svg width="24" height="24" viewBox="0 0 24 24" fill="none" xmlns="http://www.w3.org/2000/svg">
<path fill-rule="evenodd" clip-rule="evenodd" d="M12.0119 3C11.4553 3 11.0042 3.45116 11.0042 4.00769V9.46809C12.1564 8.75903 13.508 8.35088 14.9533 8.35088C16.3986 8.35088 17.7502 8.75902 18.9024 9.46809V4.00769C18.9024 3.45116 18.4512 3 17.8947 3H12.0119ZM2.00769 13.1671H7.88663C7.52033 14.0746 7.31836 15.0683 7.31836 16.1099C7.31836 17.8138 7.85879 19.3894 8.77496 20.6693C8.60383 20.9818 8.27192 21.1937 7.89051 21.1937H2.00769C1.45116 21.1937 1 20.7426 1 20.186V14.1748C1 13.6183 1.45116 13.1671 2.00769 13.1671ZM1 4.00777C1 3.45124 1.45116 3.00008 2.00769 3.00008H7.89051C8.44705 3.00008 8.89821 3.45124 8.89821 4.00777V10.019C8.89821 10.5755 8.44705 11.0267 7.89051 11.0267H2.00769C1.45116 11.0267 1 10.5755 1 10.019V4.00777ZM20.4824 15.8428C20.4824 16.473 20.3803 17.079 20.192 17.6446L22.5269 19.6357C23.0854 20.112 23.1593 20.9569 22.692 21.5228C22.2247 22.0888 21.3931 22.1616 20.8346 21.6853L18.761 19.9169C17.7696 20.8741 16.4291 21.4614 14.9537 21.4614C11.9002 21.4614 9.42493 18.9459 9.42493 15.8428C9.42493 12.7397 11.9002 10.2242 14.9537 10.2242C18.0071 10.2242 20.4824 12.7397 20.4824 15.8428ZM11.9129 15.8428C11.9129 17.5495 13.2743 18.9331 14.9537 18.9331C16.6331 18.9331 17.9945 17.5495 17.9945 15.8428C17.9945 14.1361 16.6331 12.7526 14.9537 12.7526C13.2743 12.7526 11.9129 14.1361 11.9129 15.8428Z" fill="#7D8490"/>
</svg>
