<svg width="20" height="20" viewBox="0 0 20 20" fill="none" xmlns="http://www.w3.org/2000/svg">
<rect x="1" y="1" width="18" height="18" rx="9" fill="#1786FF"/>
<g clip-path="url(#clip0_1_5809)">
<path fill-rule="evenodd" clip-rule="evenodd" d="M7.74005 11.2064L10.61 7.04842C10.6343 7.01342 10.6654 6.98371 10.7015 6.96106C10.7375 6.93842 10.7778 6.92333 10.8199 6.91669C10.8619 6.91005 10.9049 6.91201 10.9462 6.92245C10.9875 6.93289 11.0262 6.95159 11.06 6.97742L11.5185 7.32592C11.656 7.43092 11.6835 7.62592 11.581 7.76392L8.01005 12.5764C7.98358 12.6122 7.94984 12.6419 7.91104 12.6637C7.87225 12.6855 7.82929 12.6988 7.78498 12.7027C7.74067 12.7067 7.69603 12.7012 7.65398 12.6867C7.61194 12.6722 7.57345 12.6489 7.54105 12.6184L7.51755 12.5964C7.4916 12.5815 7.4673 12.5639 7.44505 12.5439L5.40905 10.7174C5.32733 10.644 5.27764 10.5415 5.27063 10.4318C5.26362 10.3222 5.29985 10.2142 5.37155 10.1309L5.63355 9.82492C5.67059 9.78175 5.71602 9.74656 5.76707 9.72147C5.81812 9.69638 5.87374 9.68193 5.93055 9.67898C5.98736 9.67604 6.04417 9.68466 6.09754 9.70433C6.15092 9.72401 6.19974 9.75432 6.24105 9.79342L7.74005 11.2064ZM10.9165 11.5199L13.79 7.35642C13.8143 7.32139 13.8453 7.29162 13.8814 7.26893C13.9174 7.24624 13.9577 7.2311 13.9998 7.22442C14.0418 7.21773 14.0848 7.21965 14.1261 7.23005C14.1674 7.24045 14.2062 7.25912 14.24 7.28492L14.6985 7.63392C14.836 7.73842 14.8635 7.93392 14.761 8.07242L11.189 12.8834C11.1625 12.9191 11.1288 12.9488 11.09 12.9706C11.0511 12.9923 11.0082 13.0055 10.9639 13.0095C10.9196 13.0134 10.8749 13.0079 10.8329 12.9933C10.7909 12.9787 10.7524 12.9554 10.72 12.9249L10.7085 12.9134C10.6691 12.8963 10.6325 12.8732 10.6 12.8449L9.60005 11.9759C9.51614 11.9032 9.46445 11.8002 9.4563 11.6894C9.44815 11.5786 9.48419 11.4692 9.55655 11.3849L9.81505 11.0849C9.85201 11.0418 9.89733 11.0067 9.94825 10.9816C9.99918 10.9565 10.0547 10.942 10.1114 10.939C10.168 10.936 10.2248 10.9444 10.2781 10.9639C10.3314 10.9834 10.3802 11.0135 10.4215 11.0524L10.916 11.5189L10.9165 11.5199Z" fill="white"/>
</g>
<defs>
<clipPath id="clip0_1_5809">
<rect width="12" height="12" fill="white" transform="translate(4 4)"/>
</clipPath>
</defs>
</svg>
