<svg width="20" height="20" viewBox="0 0 20 20" fill="none" xmlns="http://www.w3.org/2000/svg">
<path fill-rule="evenodd" clip-rule="evenodd" d="M10.2089 1.07358C9.29057 2.27613 6.60854 4.21937 2.62399 3.14303C2.43939 3.09316 2.24574 3.1988 2.20638 3.38592C1.50903 6.70058 2.20543 13.9358 10.2492 18.991C10.2501 18.9915 10.2507 18.9924 10.2509 18.9933C10.251 18.9939 10.2511 18.9944 10.2512 18.9949C10.2517 18.9971 10.2544 18.9985 10.2563 18.9973C10.2563 18.9973 10.2564 18.9973 10.2564 18.9973C10.2573 18.9967 10.2584 18.9968 10.2593 18.9973C10.2612 18.9985 10.2638 18.9971 10.2642 18.995C10.2642 18.9946 10.2643 18.9941 10.2644 18.9937C10.2646 18.9928 10.2652 18.9919 10.266 18.9915C18.647 13.9324 19.3667 6.68948 18.6379 3.37823C18.5974 3.1942 18.4069 3.09021 18.2246 3.13789C14.0485 4.23002 11.2432 2.26191 10.297 1.05871C10.2958 1.05712 10.2947 1.05551 10.2937 1.05375L10.2662 1.00458C10.265 1.00244 10.2619 1.00227 10.2605 1.00425C10.2592 1.00607 10.2565 1.00611 10.2551 1.00431C10.2551 1.00426 10.2551 1.00422 10.255 1.00418C10.2535 1.00219 10.2505 1.00237 10.2492 1.00452L10.2089 1.07358Z" fill="#7D848F"/>
</svg>
